{"title":"Damages.S05.Season.5.COMPLETE.AHDTV.x264-MOMENTUM","uid":10352416,"size":3147418840,"categoryP":"video","categoryS":"tv_shows","magnet":"?xt=urn:btih:0bb7a891337aee9ef8645c8886c4ea41aa64be4c&amp;dn=Damages.S05.Season.5.COMPLETE.AHDTV.x264-MOMENTUM&amp;tr=udp%3A%2F%2Ftracker.openbittorrent.com%3A80&amp;tr=udp%3A%2F%2Fopen.demonii.com%3A1337&amp;tr=udp%3A%2F%2Ftracker.coppersurfer.tk%3A6969&amp;tr=udp%3A%2F%2Fexodus.desync.com%3A6969","seeders":13,"leechers":5,"uploader":"FiNCH","files":-1,"time":1402687538,"description":"*******************************************************************************\n               Damages.S05.Season.5.COMPLETE.AHDTV.x264-MOMENTUM\n*******************************************************************************\n\n-------------------------------------------------------------------------------\nGeneral Information\n-------------------------------------------------------------------------------\n\nFormat : MPEG-4\nFormat profile : Base Media\nCodec ID : isom\nFile size : 272 MiB\nDuration : 53mn (x10)\nOverall bit rate mode : Variable\nOverall bit rate : 712 Kbps\nEncoded date : UTC 2012-07-12 02:51:37\nTagged date : UTC 2012-07-12 02:51:37\n\nVideo\nID : 1\nFormat : AVC\nFormat/Info : Advanced Video Codec\nFormat profile : &lt;a class=&quot;__cf_email__&quot; href=&quot;/cdn-cgi/l/email-protection&quot; data-cfemail=&quot;5018393738101c637e61&quot;&gt;[email&amp;#160;protected]&lt;/a&gt;&lt;script cf-hash='f9e31' type=&quot;text/javascript&quot;&gt;\n/* &lt;![CDATA[ */!function(){try{var t=&quot;currentScript&quot;in document?document.currentScript:function(){for(var t=document.getElementsByTagName(&quot;script&quot;),e=t.length;e--;)if(t[e].getAttribute(&quot;cf-hash&quot;))return t[e]}();if(t&amp;&amp;t.previousSibling){var e,r,n,i,c=t.previousSibling,a=c.getAttribute(&quot;data-cfemail&quot;);if(a){for(e=&quot;&quot;,r=parseInt(a.substr(0,2),16),n=2;a.length-n;n+=2)i=parseInt(a.substr(n,2),16)^r,e+=String.fromCharCode(i);e=document.createTextNode(e),c.parentNode.replaceChild(e,c)}}}catch(u){}}();/* ]]&gt; */&lt;/script&gt;\nFormat settings, CABAC : Yes\nFormat settings, ReFrames : 5 frames\nCodec ID : avc1\nCodec ID/Info : Advanced Video Coding\nDuration : 53mn 29s\nBit rate : 592 Kbps\nMaximum bit rate : 5 549 Kbps\nWidth : 720 pixels\nHeight : 404 pixels\nDisplay aspect ratio : 16:9\nFrame rate mode : Constant\nFrame rate : 23.976 fps\nColor space : YUV\nChroma subsampling : 4:2:0\nBit depth : 8 bits\nScan type : Progressive\nBits/(Pixel*Frame) : 0.085\nStream size : 227 MiB (83%)\nWriting library : x264 core 125 r2200 999b753\n\nAudio\nID : 2\nFormat : AAC\nFormat/Info : Advanced Audio Codec\nFormat profile : LC\nCodec ID : 40\nDuration : 53mn 29s\nBit rate mode : Variable\nBit rate : 116 Kbps\nMaximum bit rate : 146 Kbps\nChannel(s) : 2 channels\nChannel positions : Front: L R\nSampling rate : 48.0 KHz\nCompression mode : Lossy\nStream size : 44.3 MiB (16%)\nEncoded date : UTC 2012-07-12 02:51:38\nTagged date : UTC 2012-07-12 02:51:38\n\n-------------------------------------------------------------------------------\n-------------------------------------------------------------------------------\n\nSCREENS\n  &lt;a href=&quot;\nhttp://postimg.org/image/jjhtqmrf7/&quot; rel=&quot;nofollow&quot; target=&quot;_NEW&quot;&gt;\nhttp://postimg.org/image/jjhtqmrf7/&lt;/a&gt; &lt;a href=&quot;\nhttp://postimg.org/image/gk6bprsk3/&quot; rel=&quot;nofollow&quot; target=&quot;_NEW&quot;&gt;\nhttp://postimg.org/image/gk6bprsk3/&lt;/a&gt; &lt;a href=&quot;\nhttp://postimg.org/image/tfiwq9x77/&quot; rel=&quot;nofollow&quot; target=&quot;_NEW&quot;&gt;\nhttp://postimg.org/image/tfiwq9x77/&lt;/a&gt; &lt;a href=&quot;\nhttp://postimg.org/image/dfvnszbrn/&quot; rel=&quot;nofollow&quot; target=&quot;_NEW&quot;&gt;\nhttp://postimg.org/image/dfvnszbrn/&lt;/a&gt; &lt;a href=&quot;\nhttp://postimg.org/image/hnqg1qd77/&quot; rel=&quot;nofollow&quot; target=&quot;_NEW&quot;&gt;\nhttp://postimg.org/image/hnqg1qd77/&lt;/a&gt;","torrent":{"xt":"urn:btih:0bb7a891337aee9ef8645c8886c4ea41aa64be4c","amp;dn":"Damages.S05.Season.5.COMPLETE.AHDTV.x264-MOMENTUM","amp;tr":["udp%3A%2F%2Ftracker.openbittorrent.com%3A80","udp%3A%2F%2Fopen.demonii.com%3A1337","udp%3A%2F%2Ftracker.coppersurfer.tk%3A6969","udp%3A%2F%2Fexodus.desync.com%3A6969"],"infoHash":"0bb7a891337aee9ef8645c8886c4ea41aa64be4c","infoHashBuffer":{"type":"Buffer","data":[11,183,168,145,51,122,238,158,248,100,92,136,134,196,234,65,170,100,190,76]},"announce":[],"urlList":[]}}